<svg width="33" height="33" viewBox="0 0 33 33" fill="none" xmlns="http://www.w3.org/2000/svg">
<g clip-path="url(#clip0_1_1015)">
<rect width="33" height="33" fill="white"/>
<path d="M13.75 28.875C12.9938 28.875 12.3461 28.6055 11.8071 28.0665C11.2681 27.5275 10.9991 26.8803 11 26.125V12.375C11 11.6188 11.2695 10.9711 11.8085 10.4321C12.3475 9.89313 12.9947 9.62408 13.75 9.625H15.125V6.875C15.125 4.97292 15.7955 3.35133 17.1366 2.01025C18.4777 0.669168 20.0988 -0.000915727 22 9.39208e-07C23.9021 9.39208e-07 25.5237 0.670543 26.8648 2.01163C28.2058 3.35271 28.8759 4.97383 28.875 6.875V9.625H30.25C31.0063 9.625 31.6539 9.8945 32.1929 10.4335C32.7319 10.9725 33.0009 11.6197 33 12.375V26.125C33 26.8813 32.7305 27.5289 32.1915 28.0679C31.6525 28.6069 31.0053 28.8759 30.25 28.875H13.75ZM13.75 26.125H30.25V12.375H13.75V26.125ZM22 22C22.7563 22 23.4039 21.7305 23.9429 21.1915C24.4819 20.6525 24.7509 20.0053 24.75 19.25C24.75 18.4938 24.4805 17.8461 23.9415 17.3071C23.4025 16.7681 22.7553 16.4991 22 16.5C21.2438 16.5 20.5961 16.7695 20.0571 17.3085C19.5181 17.8475 19.2491 18.4947 19.25 19.25C19.25 20.0063 19.5195 20.6539 20.0585 21.1929C20.5975 21.7319 21.2447 22.0009 22 22ZM17.875 9.625H26.125V6.875C26.125 5.72917 25.724 4.75521 24.9219 3.95313C24.1198 3.15104 23.1458 2.75 22 2.75C20.8542 2.75 19.8802 3.15104 19.0781 3.95313C18.276 4.75521 17.875 5.72917 17.875 6.875V9.625Z" fill="black" fill-opacity="0.5"/>
</g>
<defs>
<clipPath id="clip0_1_1015">
<rect width="33" height="33" fill="white"/>
</clipPath>
</defs>
</svg>
