<svg width="33" height="33" viewBox="0 0 33 33" fill="none" xmlns="http://www.w3.org/2000/svg">
<path d="M8.25 30.25C7.49375 30.25 6.84613 29.9805 6.30713 29.4415C5.76813 28.9025 5.49909 28.2553 5.5 27.5V13.75C5.5 12.9938 5.7695 12.3461 6.3085 11.8071C6.8475 11.2681 7.49467 10.9991 8.25 11H9.625V8.25C9.625 6.34792 10.2955 4.72633 11.6366 3.38525C12.9777 2.04417 14.5988 1.37408 16.5 1.375C18.4021 1.375 20.0237 2.04554 21.3648 3.38663C22.7058 4.72771 23.3759 6.34883 23.375 8.25V11H24.75C25.5063 11 26.1539 11.2695 26.6929 11.8085C27.2319 12.3475 27.5009 12.9947 27.5 13.75V27.5C27.5 28.2563 27.2305 28.9039 26.6915 29.4429C26.1525 29.9819 25.5053 30.2509 24.75 30.25H8.25ZM8.25 27.5H24.75V13.75H8.25V27.5ZM16.5 23.375C17.2563 23.375 17.9039 23.1055 18.4429 22.5665C18.9819 22.0275 19.2509 21.3803 19.25 20.625C19.25 19.8688 18.9805 19.2211 18.4415 18.6821C17.9025 18.1431 17.2553 17.8741 16.5 17.875C15.7438 17.875 15.0961 18.1445 14.5571 18.6835C14.0181 19.2225 13.7491 19.8697 13.75 20.625C13.75 21.3813 14.0195 22.0289 14.5585 22.5679C15.0975 23.1069 15.7447 23.3759 16.5 23.375ZM12.375 11H20.625V8.25C20.625 7.10417 20.224 6.13021 19.4219 5.32813C18.6198 4.52604 17.6458 4.125 16.5 4.125C15.3542 4.125 14.3802 4.52604 13.5781 5.32813C12.776 6.13021 12.375 7.10417 12.375 8.25V11Z" fill="white"/>
</svg>
