<svg width="30" height="30" viewBox="0 0 30 30" fill="none" xmlns="http://www.w3.org/2000/svg">
<path d="M15 0C6.71591 0 0 6.71591 0 15C0 23.2841 6.71591 30 15 30C23.2841 30 30 23.2841 30 15C30 6.71591 23.2841 0 15 0ZM22.8852 13.4028L19.6526 16.5528L20.417 21.0034C20.5534 21.8011 19.7131 22.4105 18.998 22.0338L15 19.933L11.0028 22.0338C10.2869 22.4131 9.44744 21.8003 9.58381 21.0034L10.3483 16.5528L7.11563 13.4028C6.53438 12.8369 6.85568 11.8491 7.65682 11.7332L12.1253 11.0821L14.1222 7.0321C14.302 6.66733 14.6497 6.4875 14.9983 6.4875C15.3486 6.4875 15.6989 6.66989 15.8787 7.0321L17.8756 11.0821L22.344 11.7332C23.1452 11.8491 23.4665 12.8369 22.8852 13.4028Z" fill="#0C4E8C"/>
</svg>
