<svg width="31" height="31" viewBox="0 0 31 31" fill="none" xmlns="http://www.w3.org/2000/svg">
<path  fill="#000" d="M15.5 0.916656C7.45002 0.916656 0.916687 7.44999 0.916687 15.5C0.916687 23.55 7.45002 30.0833 15.5 30.0833C23.55 30.0833 30.0834 23.55 30.0834 15.5C30.0834 7.44999 23.55 0.916656 15.5 0.916656ZM16.9584 25.7083H14.0417V22.7917H16.9584V25.7083ZM19.9771 14.4062L18.6646 15.7479C17.6146 16.8125 16.9584 17.6875 16.9584 19.875H14.0417V19.1458C14.0417 17.5417 14.6979 16.0833 15.7479 15.0187L17.5563 13.1812C18.0959 12.6562 18.4167 11.9271 18.4167 11.125C18.4167 9.52082 17.1042 8.20832 15.5 8.20832C13.8959 8.20832 12.5834 9.52082 12.5834 11.125H9.66669C9.66669 7.90207 12.2771 5.29166 15.5 5.29166C18.7229 5.29166 21.3334 7.90207 21.3334 11.125C21.3334 12.4083 20.8084 13.575 19.9771 14.4062Z" />
</svg>
