<svg width="28" height="28" viewBox="0 0 28 28" fill="none" xmlns="http://www.w3.org/2000/svg">
<path d="M3.5 27.5C2.675 27.5 1.9685 27.206 1.3805 26.618C0.792502 26.03 0.499003 25.324 0.500003 24.5V18.5H3.5V24.5H24.5V3.5H3.5V9.5H0.500003V3.5C0.500003 2.675 0.794003 1.9685 1.382 1.3805C1.97 0.792502 2.676 0.499003 3.5 0.500003H24.5C25.325 0.500003 26.0315 0.794003 26.6195 1.382C27.2075 1.97 27.501 2.676 27.5 3.5V24.5C27.5 25.325 27.206 26.0315 26.618 26.6195C26.03 27.2075 25.324 27.501 24.5 27.5H3.5ZM11.75 21.5L9.65 19.325L13.475 15.5H0.500003V12.5H13.475L9.65 8.675L11.75 6.5L19.25 14L11.75 21.5Z" fill="#0C4E8C"/>
</svg>
