<svg width="245" height="227" viewBox="0 0 245 227" fill="none" xmlns="http://www.w3.org/2000/svg">
<rect width="339" height="227" fill="white" fill-opacity="0.13"/>
<path d="M173.134 226.519C183.33 226.519 191.596 218.665 191.596 208.977C191.596 199.289 183.33 191.435 173.134 191.435C162.938 191.435 154.673 199.289 154.673 208.977C154.673 218.665 162.938 226.519 173.134 226.519Z" fill="#0C4E8C"/>
<path d="M171.157 25.9327C142.304 26.1264 118.679 48.4053 118.269 75.8189C118.266 76.072 118.264 77.8516 118.264 80.1793C118.264 83.5921 119.691 86.8651 122.231 89.2784C124.77 91.6918 128.215 93.0477 131.807 93.0481C133.587 93.0478 135.35 92.714 136.995 92.066C138.64 91.418 140.134 90.4684 141.392 89.2715C142.65 88.0746 143.648 86.6538 144.328 85.0903C145.009 83.5268 145.358 81.8513 145.356 80.1595C145.355 78.5761 145.354 77.4803 145.354 77.413C145.353 73.1763 146.513 69.0123 148.719 65.3306C150.926 61.649 154.103 58.5765 157.938 56.4155C161.773 54.2544 166.134 53.0792 170.593 53.0054C175.051 52.9316 179.452 53.9618 183.364 55.9947C187.277 58.0276 190.564 60.993 192.904 64.5995C195.244 68.2059 196.556 72.3289 196.71 76.5631C196.865 80.7973 195.856 84.9968 193.784 88.7483C191.713 92.4999 188.649 95.6745 184.894 97.9596L184.899 97.965C184.899 97.965 165.623 109.756 159.747 125.931L159.752 125.932C158.718 129.246 158.195 132.684 158.197 136.14C158.197 137.561 158.285 149.991 158.455 160.08C158.514 163.561 160.012 166.881 162.624 169.322C165.236 171.764 168.753 173.131 172.417 173.131C174.259 173.131 176.081 172.785 177.781 172.113C179.481 171.441 181.024 170.456 182.322 169.215C183.62 167.974 184.647 166.502 185.343 164.882C186.04 163.263 186.393 161.529 186.382 159.779C186.323 150.54 186.291 139.781 186.291 139C186.291 129.068 196.374 119.172 204.657 112.719C214.195 105.288 221.059 95.1607 223.816 83.737C224.426 81.3851 224.762 78.9767 224.819 76.555C224.819 69.8762 223.428 63.2635 220.727 57.0977C218.025 50.932 214.066 45.3351 209.078 40.6296C204.09 35.9241 198.171 32.203 191.663 29.6806C185.155 27.1582 178.185 25.8845 171.157 25.9327Z" fill="#0C4E8C"/>
<path d="M135.631 86.9613C132.039 86.9609 128.594 85.6049 126.055 83.1916C123.515 80.7783 122.088 77.5052 122.088 74.0924C122.088 71.7647 122.089 69.9851 122.093 69.732C122.207 61.7594 124.32 53.9275 128.257 46.8861C121.789 55.2997 118.233 65.4153 118.08 75.8335C118.076 76.0866 118.074 77.8663 118.074 80.1939C118.075 83.6068 119.502 86.8798 122.041 89.2931C124.581 91.7064 128.025 93.0624 131.617 93.0628C134.569 93.0617 137.439 92.1453 139.792 90.4528C142.146 88.7602 143.853 86.3841 144.656 83.6853C142.176 85.7982 138.961 86.9651 135.631 86.9613Z" fill="#3F3D56"/>
<path d="M172.075 53.0486C176.227 53.2371 180.269 54.3803 183.854 56.38C187.439 58.3798 190.459 61.1764 192.656 64.5298C194.853 67.8831 196.161 71.693 196.467 75.6322C196.773 79.5715 196.068 83.5224 194.413 87.1458C196.807 84.4744 198.566 81.3438 199.571 77.9677C200.577 74.5915 200.804 71.049 200.238 67.5818C199.671 64.1147 198.325 60.8042 196.29 57.8763C194.256 54.9483 191.58 52.4717 188.447 50.6152C185.314 48.7587 181.796 47.566 178.133 47.1184C174.471 46.6709 170.75 46.979 167.224 48.0217C163.698 49.0644 160.45 50.8172 157.702 53.1607C154.954 55.5042 152.77 58.3831 151.299 61.6014C153.841 58.7593 157.037 56.5102 160.639 55.0273C164.241 53.5444 168.154 52.8675 172.075 53.0486Z" fill="#3F3D56"/>
<path d="M176.241 167.044C172.577 167.044 169.06 165.677 166.448 163.235C163.835 160.794 162.338 157.474 162.279 153.993C162.109 143.904 162.021 131.474 162.021 130.053C162.018 126.597 162.542 123.159 163.575 119.845L163.57 119.844C164.181 118.181 164.918 116.562 165.775 115.001C163.142 118.335 161.046 122.024 159.557 125.946L159.562 125.947C158.529 129.261 158.005 132.699 158.007 136.155C158.007 137.575 158.095 150.006 158.265 160.095C158.325 163.576 159.822 166.895 162.434 169.337C165.046 171.778 168.564 173.146 172.228 173.145C175.249 173.145 178.188 172.214 180.605 170.491C183.022 168.769 184.787 166.349 185.633 163.593C183.066 165.817 179.716 167.048 176.241 167.044Z" fill="#3F3D56"/>
<path d="M169.067 222.24C166.444 221.155 164.123 219.505 162.286 217.422C160.45 215.338 159.148 212.877 158.483 210.233C157.819 207.59 157.81 204.835 158.458 202.188C159.106 199.541 160.392 197.072 162.216 194.978C160.101 196.445 158.34 198.322 157.047 200.486C155.755 202.649 154.962 205.049 154.72 207.525C154.478 210.002 154.794 212.5 155.645 214.852C156.497 217.204 157.866 219.357 159.66 221.168C161.455 222.979 163.634 224.407 166.053 225.357C168.473 226.307 171.077 226.756 173.694 226.677C176.311 226.597 178.879 225.989 181.23 224.894C183.58 223.799 185.659 222.241 187.327 220.324C184.725 222.131 181.67 223.259 178.466 223.595C175.262 223.932 172.021 223.464 169.067 222.24Z" fill="#3F3D56"/>
</svg>
