<svg width="184" height="156" viewBox="0 0 184 156" fill="none" xmlns="http://www.w3.org/2000/svg">
<path d="M161.644 155.624H21.3814C9.59157 155.624 0 147.469 0 137.444V18.1804C0 8.15562 9.59157 0 21.3814 0H161.644C173.434 0 183.025 8.15562 183.025 18.1804V137.444C183.025 147.469 173.434 155.624 161.644 155.624ZM21.3814 2.90886C11.4622 2.90886 3.42103 9.74617 3.42103 18.1804V137.444C3.42103 145.878 11.4622 152.716 21.3814 152.716H119.632C152.754 152.716 179.604 129.885 179.604 101.722V18.1804C179.604 9.74617 171.563 2.90887 161.644 2.90887L21.3814 2.90886Z" fill="#F2F2F2"/>
</svg>
