<svg width="20" height="19" viewBox="0 0 20 19" fill="none" xmlns="http://www.w3.org/2000/svg">
<path d="M13.7909 9.5L19.4767 4.09849C20.1744 3.43565 20.1744 2.36097 19.4767 1.69758L18.2131 0.497131C17.5154 -0.16571 16.3841 -0.16571 15.6858 0.497131L10 5.89864L4.31423 0.497131C3.6165 -0.16571 2.48526 -0.16571 1.78696 0.497131H0.523262C-0.174464 1.15997 -0.174399 3.43511 0.523327 4.09849L6.20911 9.5L0.523327 14.9015C-0.174399 15.5643 -0.174399 16.639 0.523327 17.3024L1.78696 18.5029C2.48469 19.1657 3.6165 19.1657 4.31423 18.5029L10 13.1014L15.6858 18.5029C16.3835 19.1657 17.5153 19.1657 18.2131 18.5029L19.4767 17.3024C20.1744 16.6396 20.1744 15.5649 19.4767 14.9015L13.7909 9.5Z" fill="white"/>
</svg>
