<svg width="360" height="151" viewBox="0 0 360 151" fill="none" xmlns="http://www.w3.org/2000/svg">
<path fill-rule="evenodd" clip-rule="evenodd" d="M0 113.383L8 118.616C15 125.594 30 137.804 45 132.571C60 125.594 75 101.173 90 97.6838C105 94.1951 120 113.383 135 109.894C150 106.406 165 81.9847 180 90.7064C195 101.173 210 144.781 225 150.014C240 156.992 255 125.594 270 97.6838C285 69.7742 300 43.6089 315 54.075C330 62.7968 345 106.406 353 129.082L360 150.014V0H353C345 0 330 0 315 0C300 0 285 0 270 0C255 0 240 0 225 0C210 0 195 0 180 0C165 0 150 0 135 0C120 0 105 0 90 0C75 0 60 0 45 0C30 0 15 0 8 0H0V113.383Z" fill="#1275D2"/>
</svg>
