<svg width="346" height="269" viewBox="0 0 346 269" fill="none" xmlns="http://www.w3.org/2000/svg">
<g clip-path="url(#clip0_1_875)">
<path d="M287.91 47.1768C287.903 47.1768 287.897 47.1785 287.89 47.1787V13.6762C287.89 10.0491 286.243 6.57046 283.312 4.00567C280.381 1.44088 276.405 0 272.259 0H152.376C148.231 0 144.255 1.44088 141.324 4.00567C138.392 6.57046 136.745 10.0491 136.745 13.6762V30.8513C136.414 30.8575 136.099 30.9768 135.868 31.1837C135.636 31.3906 135.506 31.6686 135.506 31.9583V40.4653C135.506 40.7549 135.636 41.0329 135.867 41.2398C136.099 41.4466 136.414 41.5659 136.745 41.572V50.4839H136.682C136.515 50.4839 136.35 50.5126 136.196 50.5683C136.043 50.6241 135.903 50.7058 135.785 50.8088C135.667 50.9118 135.574 51.0341 135.51 51.1687C135.446 51.3033 135.414 51.4476 135.414 51.5933V68.0437C135.414 68.1894 135.446 68.3336 135.51 68.4682C135.574 68.6028 135.667 68.7251 135.785 68.8281C135.903 68.9312 136.043 69.0129 136.196 69.0686C136.35 69.1244 136.515 69.1531 136.682 69.1531H136.745V75.6866H136.725C136.559 75.6866 136.394 75.7153 136.24 75.7711C136.086 75.8268 135.947 75.9085 135.829 76.0116C135.711 76.1146 135.618 76.2369 135.554 76.3715C135.49 76.5061 135.457 76.6503 135.457 76.796V93.4073C135.457 93.553 135.49 93.6973 135.554 93.8319C135.618 93.9665 135.711 94.0888 135.829 94.1918C135.947 94.2948 136.086 94.3765 136.24 94.4323C136.394 94.488 136.559 94.5167 136.725 94.5167H136.745V255.085C136.745 258.713 138.392 262.191 141.324 264.756C144.255 267.321 148.231 268.762 152.376 268.762H272.259C276.405 268.762 280.381 267.321 283.312 264.756C286.243 262.191 287.89 258.713 287.89 255.085V79.7544C287.897 79.7544 287.903 79.7561 287.91 79.7561C288.206 79.7561 288.5 79.705 288.774 79.6057C289.048 79.5065 289.297 79.361 289.506 79.1775C289.716 78.9941 289.882 78.7764 289.996 78.5367C290.109 78.297 290.168 78.0402 290.168 77.7808V49.1523C290.168 48.6283 289.93 48.1259 289.506 47.7554C289.083 47.3849 288.509 47.1768 287.91 47.1768Z" fill="#3F3D56"/>
<path d="M278.557 17.5044V251.253C278.556 254.038 277.291 256.709 275.039 258.678C272.788 260.647 269.735 261.753 266.552 261.753H158.083C154.9 261.753 151.847 260.647 149.596 258.678C147.345 256.709 146.08 254.038 146.078 251.253V17.5044C146.078 14.7187 147.343 12.0471 149.595 10.0773C151.846 8.10758 154.899 7.00098 158.083 7.00098H174.315V8.84414C174.316 11.1376 175.358 13.3369 177.211 14.9586C179.065 16.5803 181.578 17.4918 184.2 17.4929H239.385C242.002 17.4878 244.511 16.5743 246.36 14.9529C248.209 13.3315 249.248 11.1346 249.248 8.84414V7.02013H266.552C269.732 7.02013 272.782 8.1241 275.033 10.0897C277.284 12.0554 278.551 14.722 278.557 17.5044Z" fill="white"/>
<path d="M102.666 131.161C102.025 130.943 101.337 130.852 100.65 130.892C99.964 130.933 99.2962 131.105 98.694 131.395C98.0917 131.686 97.5697 132.089 97.1646 132.575C96.7595 133.062 96.4812 133.62 96.3494 134.21L57.6962 152.599L64.4924 159.291L100.389 139.136C101.538 139.264 102.7 139.018 103.656 138.447C104.612 137.875 105.295 137.016 105.576 136.033C105.857 135.05 105.716 134.011 105.179 133.113C104.643 132.215 103.749 131.52 102.666 131.161Z" fill="#FFB8B8"/>
<path d="M92.8082 263.466L97.6246 260.74L87.9002 243.189L80.7914 247.212L92.8082 263.466Z" fill="#FFB8B8"/>
<path d="M109.806 259.397L94.6688 267.963L90.8858 262.846L100.393 257.466C101.887 256.621 103.702 256.329 105.441 256.656C107.18 256.982 108.699 257.899 109.665 259.205L109.806 259.397Z" fill="#2F2E41"/>
<path d="M38.7656 264.1H44.5017L47.2316 244.742H38.7656V264.1Z" fill="#FFB8B8"/>
<path d="M55.5647 268.76H37.5364V262.666H48.8597C49.7402 262.666 50.6121 262.818 51.4256 263.113C52.2391 263.408 52.9782 263.84 53.6008 264.384C54.2235 264.929 54.7173 265.576 55.0543 266.288C55.3913 266.999 55.5647 267.762 55.5647 268.533V268.76Z" fill="#2F2E41"/>
<path d="M170.372 37.9333H158.547C158.256 37.9333 157.978 37.8324 157.773 37.6527C157.567 37.4731 157.452 37.2294 157.452 36.9753C157.452 36.7212 157.567 36.4776 157.773 36.2979C157.978 36.1183 158.256 36.0173 158.547 36.0173H170.372C170.663 36.0173 170.941 36.1183 171.146 36.2979C171.352 36.4776 171.467 36.7212 171.467 36.9753C171.467 37.2294 171.352 37.4731 171.146 37.6527C170.941 37.8324 170.663 37.9333 170.372 37.9333Z" fill="#3F3D56"/>
<path d="M170.372 40.6157H158.547C158.256 40.6157 157.978 40.5148 157.773 40.3351C157.567 40.1554 157.452 39.9118 157.452 39.6577C157.452 39.4036 157.567 39.1599 157.773 38.9803C157.978 38.8006 158.256 38.6997 158.547 38.6997H170.372C170.663 38.6997 170.941 38.8006 171.146 38.9803C171.352 39.1599 171.467 39.4036 171.467 39.6577C171.467 39.9118 171.352 40.1554 171.146 40.3351C170.941 40.5148 170.663 40.6157 170.372 40.6157Z" fill="#3F3D56"/>
<path d="M170.372 43.2981H158.547C158.256 43.2981 157.978 43.1971 157.773 43.0175C157.567 42.8378 157.452 42.5941 157.452 42.3401C157.452 42.086 157.567 41.8423 157.773 41.6627C157.978 41.483 158.256 41.3821 158.547 41.3821H170.372C170.663 41.3821 170.941 41.483 171.146 41.6627C171.352 41.8423 171.467 42.086 171.467 42.3401C171.467 42.5941 171.352 42.8378 171.146 43.0175C170.941 43.1971 170.663 43.2981 170.372 43.2981Z" fill="#3F3D56"/>
<path d="M262.037 40.6349H261.638L261.485 40.5238C261.988 39.9987 262.264 39.3353 262.264 38.6499C262.261 38.0861 262.066 37.5358 261.705 37.0686C261.344 36.6015 260.833 36.2385 260.237 36.0255C259.64 35.8125 258.984 35.7592 258.353 35.8721C257.722 35.9851 257.143 36.2594 256.689 36.6602C256.236 37.0611 255.929 37.5705 255.807 38.1241C255.684 38.6778 255.752 39.2507 256.002 39.7705C256.252 40.2902 256.672 40.7335 257.21 41.0443C257.748 41.355 258.379 41.5193 259.023 41.5162C259.804 41.5114 260.559 41.2704 261.161 40.8341L261.31 40.9453V41.2978L263.824 43.5012L264.577 42.8421L262.037 40.6349ZM259.023 40.6349C258.575 40.6364 258.135 40.5215 257.761 40.3046C257.387 40.0878 257.095 39.7788 256.922 39.4166C256.749 39.0545 256.702 38.6556 256.788 38.2702C256.874 37.8849 257.088 37.5305 257.404 37.2518C257.72 36.9731 258.124 36.7827 258.563 36.7047C259.003 36.6266 259.459 36.6643 259.875 36.8132C260.29 36.962 260.645 37.2152 260.896 37.5408C261.147 37.8664 261.281 38.2497 261.283 38.6423L261.283 38.6499C261.285 38.9091 261.228 39.166 261.117 39.406C261.005 39.646 260.84 39.8644 260.632 40.0487C260.424 40.233 260.176 40.3797 259.903 40.4802C259.63 40.5808 259.337 40.6333 259.041 40.6349C259.035 40.6349 259.029 40.6349 259.023 40.6349Z" fill="#3F3D56"/>
<path d="M194.463 73.1873H173.219C171.941 73.1873 170.716 72.7432 169.812 71.9527C168.909 71.1622 168.401 70.09 168.401 68.9721C168.401 67.8542 168.909 66.782 169.812 65.9915C170.716 65.2011 171.941 64.757 173.219 64.757H194.463C195.741 64.757 196.966 65.2011 197.87 65.9915C198.773 66.782 199.281 67.8542 199.281 68.9721C199.281 70.09 198.773 71.1622 197.87 71.9527C196.966 72.7432 195.741 73.1873 194.463 73.1873Z" fill="#DCB233"/>
<path d="M259.5 82.384H171.029C170.332 82.384 169.664 82.1418 169.171 81.7106C168.678 81.2794 168.401 80.6946 168.401 80.0848C168.401 79.475 168.678 78.8902 169.171 78.4591C169.664 78.0279 170.332 77.7856 171.029 77.7856H259.5C260.197 77.7856 260.865 78.0279 261.358 78.4591C261.851 78.8902 262.128 79.475 262.128 80.0848C262.128 80.6946 261.851 81.2794 261.358 81.7106C260.865 82.1418 260.197 82.384 259.5 82.384Z" fill="#E6E6E6"/>
<path d="M203.527 91.5806H171.029C170.332 91.5806 169.664 91.3384 169.171 90.9072C168.678 90.4761 168.401 89.8912 168.401 89.2815C168.401 88.6717 168.678 88.0869 169.171 87.6557C169.664 87.2245 170.332 86.9823 171.029 86.9823H203.527C204.224 86.9823 204.892 87.2245 205.385 87.6557C205.878 88.0869 206.155 88.6717 206.155 89.2815C206.155 89.8912 205.878 90.4761 205.385 90.9072C204.892 91.3384 204.224 91.5806 203.527 91.5806Z" fill="#E6E6E6"/>
<path d="M194.463 175.117H173.219C171.941 175.117 170.716 174.673 169.812 173.883C168.909 173.092 168.401 172.02 168.401 170.902C168.401 169.784 168.909 168.712 169.812 167.921C170.716 167.131 171.941 166.687 173.219 166.687H194.463C195.741 166.687 196.966 167.131 197.87 167.921C198.773 168.712 199.281 169.784 199.281 170.902C199.281 172.02 198.773 173.092 197.87 173.883C196.966 174.673 195.741 175.117 194.463 175.117Z" fill="#DCB233"/>
<path d="M259.5 184.314H171.029C170.332 184.314 169.664 184.072 169.171 183.64C168.678 183.209 168.401 182.625 168.401 182.015C168.401 181.405 168.678 180.82 169.171 180.389C169.664 179.958 170.332 179.716 171.029 179.716H259.5C260.197 179.716 260.865 179.958 261.358 180.389C261.851 180.82 262.128 181.405 262.128 182.015C262.128 182.625 261.851 183.209 261.358 183.64C260.865 184.072 260.197 184.314 259.5 184.314Z" fill="#E6E6E6"/>
<path d="M203.527 193.511H171.029C170.332 193.511 169.664 193.268 169.171 192.837C168.678 192.406 168.401 191.821 168.401 191.211C168.401 190.602 168.678 190.017 169.171 189.586C169.664 189.154 170.332 188.912 171.029 188.912H203.527C204.224 188.912 204.892 189.154 205.385 189.586C205.878 190.017 206.155 190.602 206.155 191.211C206.155 191.821 205.878 192.406 205.385 192.837C204.892 193.268 204.224 193.511 203.527 193.511Z" fill="#E6E6E6"/>
<path d="M194.463 222.25H173.219C171.941 222.25 170.716 221.806 169.812 221.016C168.909 220.225 168.401 219.153 168.401 218.035C168.401 216.917 168.909 215.845 169.812 215.055C170.716 214.264 171.941 213.82 173.219 213.82H194.463C195.741 213.82 196.966 214.264 197.87 215.055C198.773 215.845 199.281 216.917 199.281 218.035C199.281 219.153 198.773 220.225 197.87 221.016C196.966 221.806 195.741 222.25 194.463 222.25Z" fill="#DCB233"/>
<path d="M259.5 231.447H171.029C170.332 231.447 169.664 231.205 169.171 230.774C168.678 230.342 168.401 229.758 168.401 229.148C168.401 228.538 168.678 227.953 169.171 227.522C169.664 227.091 170.332 226.849 171.029 226.849H259.5C260.197 226.849 260.865 227.091 261.358 227.522C261.851 227.953 262.128 228.538 262.128 229.148C262.128 229.758 261.851 230.342 261.358 230.774C260.865 231.205 260.197 231.447 259.5 231.447Z" fill="#E6E6E6"/>
<path d="M203.527 240.644H171.029C170.332 240.644 169.664 240.401 169.171 239.97C168.678 239.539 168.401 238.954 168.401 238.344C168.401 237.735 168.678 237.15 169.171 236.719C169.664 236.287 170.332 236.045 171.029 236.045H203.527C204.224 236.045 204.892 236.287 205.385 236.719C205.878 237.15 206.155 237.735 206.155 238.344C206.155 238.954 205.878 239.539 205.385 239.97C204.892 240.401 204.224 240.644 203.527 240.644Z" fill="#E6E6E6"/>
<path d="M271.982 151.168H102.924C101.937 151.167 100.991 150.823 100.293 150.212C99.595 149.602 99.2024 148.774 99.2013 147.91V107.675C99.2024 106.811 99.5949 105.983 100.293 105.373C100.991 104.762 101.937 104.419 102.924 104.418H271.982C272.969 104.419 273.916 104.762 274.613 105.373C275.311 105.983 275.704 106.811 275.705 107.675V147.91C275.704 148.774 275.311 149.602 274.613 150.212C273.915 150.823 272.969 151.167 271.982 151.168Z" fill="#DCB233"/>
<path d="M42.147 199.036C43.7631 208.957 35.2051 252.91 36.1555 252.906L48.4451 252.848C48.8831 252.113 54.5242 228.397 56.2936 224.592C58.7638 219.311 61.2558 213.966 62.2282 208.325C63.1435 203.029 62.6924 197.634 62.0968 192.303C62.1244 192.145 62.1086 191.983 62.0506 191.831C61.9926 191.679 61.8941 191.541 61.7632 191.428C61.6323 191.316 61.4728 191.233 61.2977 191.185C61.1227 191.137 60.9372 191.127 60.7566 191.154L44.2668 190.411C40.8681 190.257 40.0622 189.606 40.5791 192.526C40.9382 194.706 41.7879 196.829 42.147 199.036Z" fill="#2F2E41"/>
<path d="M45.388 174.914C42.0375 179.129 38.525 183.981 39.6374 189.027C40.4827 192.859 43.8201 195.829 46.9691 198.607C59.5565 209.666 84.3765 258.462 84.3765 258.462C96.3544 251.756 84.0911 258.654 96.2456 251.565C95.1682 251.492 70.6898 174.504 68.662 174.401C60.4587 173.925 53.3811 173.224 45.388 174.914Z" fill="#2F2E41"/>
<path d="M58.6405 134.794C56.9387 133.466 44.979 129.371 44.979 129.371C44.7591 129.346 44.536 129.351 44.3182 129.388C43.6376 129.539 43.3271 130.279 43.4725 130.877C43.6178 131.475 42.4251 141.309 42.1179 145.781C41.5794 153.586 46.8325 171.265 46.7863 171.805C46.6062 173.733 45.6414 175.541 44.0672 176.899C44.4763 177.343 70.4617 178.234 72.2293 178.76C72.5861 178.364 70.2172 150.322 70.1082 148.738C69.9265 146.333 60.8871 136.615 58.6405 134.794Z" fill="#E6E6E6"/>
<path d="M40.1066 195.641C40.7224 195.372 41.2635 194.989 41.6918 194.519C42.1202 194.048 42.4253 193.5 42.5857 192.915C42.7461 192.33 42.7579 191.721 42.6203 191.131C42.4826 190.542 42.1989 189.986 41.7891 189.502L52.7529 136.414L42.5218 136.297L34.908 188.794C34.0256 189.45 33.449 190.366 33.2874 191.37C33.1259 192.373 33.3905 193.393 34.0313 194.237C34.6721 195.081 35.6445 195.69 36.7642 195.949C37.8839 196.208 39.0731 196.098 40.1066 195.641Z" fill="#FFB8B8"/>
<path d="M40.0185 140.354C39.5918 140.381 39.1668 140.284 38.8096 140.078C38.2009 139.622 43.1675 132.644 44.1486 132.54C47.3414 132.218 50.6262 132.111 53.7227 132.866C56.8192 133.621 59.7317 135.338 61.1157 137.878C61.6938 138.936 57.5024 144.258 55.5972 143.477C53.3154 142.542 43.023 140.419 40.0185 140.354Z" fill="#E6E6E6"/>
<path d="M51.2877 128.799C57.6345 128.799 62.7796 124.298 62.7796 118.745C62.7796 113.192 57.6345 108.69 51.2877 108.69C44.9409 108.69 39.7958 113.192 39.7958 118.745C39.7958 124.298 44.9409 128.799 51.2877 128.799Z" fill="#FFB8B8"/>
<path d="M40.0002 135.369C41.5971 135.515 43.2105 135.309 44.6927 134.768C46.1748 134.228 47.4785 133.371 48.4843 132.276C49.4902 131.181 50.1661 129.883 50.4503 128.5C50.7345 127.117 50.6179 125.695 50.1111 124.361C49.6538 123.158 48.8893 122.056 48.4705 120.842C48.0517 119.629 48.0403 118.193 48.9692 117.22C50.7866 115.317 54.2897 116.514 57.0915 116.136C60.077 115.732 62.3675 113.226 62.6064 110.592C62.8453 107.957 61.2757 105.35 58.9391 103.674C56.6024 101.999 53.5889 101.174 50.5825 100.916C46.7215 100.584 42.8278 101.127 39.2764 102.494C35.7251 103.86 32.6356 106.003 30.3055 108.717C27.9754 111.431 26.4832 114.624 25.9725 117.989C25.4618 121.354 25.9499 124.777 27.3897 127.929C28.6457 130.679 30.6974 133.24 33.6115 134.746C36.5256 136.252 40.3744 136.541 43.2788 135.021" fill="#2F2E41"/>
<path d="M163.048 122.811H133.68C131.815 122.811 130.298 120.92 130.298 118.596C130.298 116.272 131.815 114.381 133.68 114.381H163.048C164.913 114.381 166.43 116.272 166.43 118.596C166.43 120.92 164.913 122.811 163.048 122.811Z" fill="white"/>
<path d="M241.981 132.008H132.925C132.228 132.008 131.56 131.766 131.067 131.334C130.574 130.903 130.297 130.318 130.297 129.709C130.297 129.099 130.574 128.514 131.067 128.083C131.56 127.652 132.228 127.409 132.925 127.409H241.981C242.678 127.409 243.346 127.652 243.839 128.083C244.332 128.514 244.609 129.099 244.609 129.709C244.609 130.318 244.332 130.903 243.839 131.334C243.346 131.766 242.678 132.008 241.981 132.008Z" fill="#E6E6E6"/>
<path d="M186.008 141.204H132.925C132.228 141.204 131.56 140.962 131.067 140.531C130.574 140.1 130.297 139.515 130.297 138.905C130.297 138.295 130.574 137.711 131.067 137.279C131.56 136.848 132.228 136.606 132.925 136.606H186.008C186.705 136.606 187.373 136.848 187.866 137.279C188.359 137.711 188.636 138.295 188.636 138.905C188.636 139.515 188.359 140.1 187.866 140.531C187.373 140.962 186.705 141.204 186.008 141.204Z" fill="#E6E6E6"/>
<path d="M346 268.234H0V269H346V268.234Z" fill="#3F3D56"/>
</g>
<defs>
<clipPath id="clip0_1_875">
<rect width="346" height="269" fill="white"/>
</clipPath>
</defs>
</svg>
